<?xml version="1.0" encoding="iso-8859-1"?>
<!-- Generator: Adobe Illustrator 16.0.4, SVG Export Plug-In . SVG Version: 6.00 Build 0)  -->
<!DOCTYPE svg PUBLIC "-//W3C//DTD SVG 1.1//EN" "http://www.w3.org/Graphics/SVG/1.1/DTD/svg11.dtd">
<svg version="1.1" id="&#x56FE;&#x5C42;_1" xmlns="http://www.w3.org/2000/svg" xmlns:xlink="http://www.w3.org/1999/xlink" x="0px"
	 y="0px" width="32px" height="32px" viewBox="0 0 32 32" style="enable-background:new 0 0 32 32;" xml:space="preserve">
<path style="fill:#444444;" d="M29.891,0H2.108C0.945,0,0,1.05,0,2.34v20.462c0,1.291,0.946,2.341,2.108,2.341H11v4.854H6.027V32
	h19.974v-1.975H21v-4.883h8.891c1.164,0,2.109-1.051,2.109-2.341V2.34C32,1.05,31.053,0,29.891,0L29.891,0z M18.999,30.025h-6
	v-4.883h6V30.025z M29.995,22.803c0,0.063-0.047,0.117-0.104,0.117H2.108c-0.059,0-0.104-0.053-0.104-0.117V2.34
	c0-0.062,0.047-0.117,0.104-0.117h27.783c0.059,0,0.104,0.053,0.104,0.117V22.803z"/>
<g>
	<path style="fill:#444444;" d="M15.921,17.125L16,17.126c1.955,0,3.58-1.59,3.624-3.546c0.043-1.998-1.548-3.659-3.625-3.704
		c-1.956,0-3.582,1.591-3.624,3.546C12.332,15.42,13.922,17.082,15.921,17.125z M16.034,11.876L16.034,11.876
		c0.896,0.02,1.609,0.764,1.591,1.659c-0.02,0.877-0.749,1.59-1.625,1.59v1l-0.036-1c-0.896-0.02-1.609-0.764-1.589-1.66
		C14.394,12.589,15.122,11.876,16.034,11.876z"/>
	<path style="fill:#444444;" d="M25.33,6.983h-4.242c-1.318-1.875-1.729-1.9-2.068-1.913c-0.58-0.037-2.004-0.063-3.465-0.063
		c-0.827,0-2.304,0.008-2.902,0.065l-0.24,0.053c-0.225,0.08-0.501,0.178-1.871,1.857H6.652c-1.054,0-1.911,0.839-1.911,1.872v9.694
		c0,1.032,0.857,1.871,1.911,1.871H25.33c1.054,0,1.911-0.839,1.911-1.871V8.854C27.241,7.822,26.384,6.983,25.33,6.983z
		 M20.027,8.983c0.003,0.003,0.008,0.009,0.01,0.012h4.838v9.246H7.099V8.995l1.257-0.012H20.027z"/>
</g>
</svg>
